<?xml version="1.0" standalone="no"?>
<!DOCTYPE svg PUBLIC "-//W3C//DTD SVG 20010904//EN"
 "http://www.w3.org/TR/2001/REC-SVG-20010904/DTD/svg10.dtd">
<svg version="1.0" xmlns="http://www.w3.org/2000/svg"
 width="332.000000pt" height="99.000000pt" viewBox="0 0 332.000000 99.000000"
 preserveAspectRatio="xMidYMid meet">

<g transform="translate(0.000000,99.000000) scale(0.100000,-0.100000)"
fill="#000000" stroke="none">
<path d="M550 640 c-1 -148 -3 -190 -12 -175 -24 45 -67 79 -150 121 -74 37
-88 48 -88 69 0 28 34 55 70 55 14 0 44 -9 68 -20 l42 -19 25 50 26 50 -48 21
c-136 61 -276 12 -303 -106 -17 -77 23 -137 125 -188 101 -51 126 -86 87 -121
-28 -26 -99 -22 -151 8 -23 14 -47 25 -51 25 -4 0 -20 -21 -35 -46 -32 -54
-28 -62 48 -95 40 -18 71 -23 132 -23 99 -1 157 26 189 89 l21 40 3 -62 3 -63
54 0 55 0 0 108 c0 95 3 111 20 130 32 34 67 38 96 11 23 -21 24 -29 24 -136
l0 -113 60 0 60 0 0 53 c1 51 1 52 16 25 20 -37 92 -77 150 -84 90 -11 180 29
215 96 l19 35 0 -153 0 -153 58 3 57 3 3 102 3 102 42 -19 c23 -11 56 -20 72
-20 63 0 136 51 158 110 3 8 6 -11 6 -42 l1 -58 60 0 60 0 0 130 c0 123 1 130
20 130 18 0 20 -7 20 -72 0 -161 52 -220 168 -189 39 11 41 13 32 37 -14 36
-12 42 6 16 29 -41 72 -56 164 -56 156 0 182 32 188 227 l4 127 -61 0 -61 0 0
-102 c0 -129 -10 -152 -67 -156 -63 -5 -73 17 -73 150 l0 108 -90 0 -90 0 0
65 0 65 -60 0 -60 0 0 -65 0 -65 -80 0 -80 0 0 -57 0 -58 -16 30 c-24 46 -43
63 -90 81 -52 20 -106 14 -146 -16 l-28 -21 0 21 c0 18 -6 20 -60 20 l-60 0 0
-62 0 -63 -24 40 c-44 74 -151 111 -246 85 -29 -8 -59 -27 -87 -55 l-43 -43
-15 32 c-33 69 -150 95 -214 48 l-30 -22 -3 136 -3 136 -53 2 -52 1 0 -195z
m621 -159 c16 -16 29 -39 29 -50 0 -50 -41 -91 -91 -91 -30 0 -79 53 -79 85 0
35 50 85 85 85 16 0 38 -12 56 -29z m404 4 c50 -49 24 -130 -46 -141 -80 -13
-126 90 -64 143 35 30 79 30 110 -2z m485 -44 c0 -38 3 -76 6 -84 4 -12 -1
-13 -28 -8 l-33 7 -3 77 -3 77 31 0 30 0 0 -69z"/>
<path d="M1730 790 c-43 -43 -10 -110 54 -110 25 0 39 7 50 22 35 49 7 108
-50 108 -21 0 -42 -8 -54 -20z"/>
<path d="M2630 599 c-13 -6 -33 -17 -42 -26 -17 -15 -18 -15 -18 5 0 20 -5 22
-60 22 l-60 0 2 -262 3 -263 58 -3 57 -3 0 105 0 105 43 -19 c23 -11 56 -20
72 -20 44 0 116 40 142 78 43 65 39 166 -9 227 -41 52 -129 77 -188 54z m74
-110 c57 -45 19 -149 -54 -149 -44 0 -80 39 -80 85 0 72 77 109 134 64z"/>
<path d="M3000 370 c-43 -43 -6 -130 55 -130 35 0 75 42 75 78 0 61 -86 96
-130 52z"/>
</g>
</svg>
